<svg width="161" height="199" viewBox="0 0 161 199" fill="none" xmlns="http://www.w3.org/2000/svg">
<path d="M98.9466 4.31379C90.8135 10.871 86.8136 22.3795 84.547 45.7981L83.7471 55.2993L91.4802 56.2361C110.413 58.511 122.146 65.3358 126.013 76.4429L127.879 81.7957L141.212 68.2799C160.812 48.2069 164.011 39.7762 156.145 27.4647C151.078 19.4355 144.279 15.2871 135.612 14.8856C129.746 14.4841 127.746 13.6812 122.813 9.26515C111.746 -0.369915 106.28 -1.44048 98.9466 4.31379ZM100.413 25.5912C94.9468 36.6983 94.4134 37.0998 96.8134 28.5353C97.6133 25.725 105.613 12.7445 106.146 13.2798C106.28 13.4136 103.746 18.9002 100.413 25.5912ZM110.413 27.1971C109.213 28.5353 107.08 32.0146 105.48 34.9586C103.613 38.3041 102.947 39.1071 103.48 36.9659C104.546 32.6837 110.68 23.0486 111.613 24.1192C112.146 24.5207 111.48 25.9927 110.413 27.1971ZM149.212 46.3334C147.345 50.7494 143.745 55.4331 138.945 59.7154C134.812 63.3285 131.346 66.1388 131.212 66.005C130.946 65.7373 134.146 61.9903 138.412 57.5743C142.679 53.1582 147.212 47.0025 148.545 43.9246C150.012 40.8467 151.345 38.5718 151.612 38.8394C152.012 39.1071 150.812 42.4526 149.212 46.3334ZM134.146 52.3553C131.479 56.3699 128.946 59.7154 128.546 59.7154C128.012 59.7154 128.679 58.3772 129.879 56.6375C130.946 55.0317 133.212 51.4185 134.946 48.7421C136.546 45.9319 138.146 43.9246 138.412 44.3261C138.812 44.7275 136.946 48.3407 134.146 52.3553Z" fill="black"/>
<path d="M60.281 45.6643C32.6818 51.6862 9.21583 74.168 2.01603 101.334C-0.517226 110.701 -0.517226 131.978 2.01603 141.346C9.0825 168.244 31.8818 190.458 58.8144 196.881C85.347 203.037 111.213 195.677 130.679 176.139C146.012 160.884 153.345 143.219 153.345 121.942V111.504L150.012 116.455C148.145 119.132 146.679 123.28 146.679 125.689C146.679 131.443 143.612 143.755 141.079 148.572L139.079 152.319L131.346 142.015C127.212 136.394 124.279 131.309 124.813 130.774C125.479 130.239 128.412 129.034 131.346 128.098C147.879 122.477 157.878 106.419 148.545 100.397C145.612 98.3895 143.612 98.2557 133.079 99.46C126.412 100.263 119.879 100.531 118.546 100.263C116.279 99.5939 110.28 89.0221 110.28 85.2751C110.28 82.0634 104.413 77.3797 97.3466 75.1047C91.0802 72.9636 90.1469 72.9636 83.4804 75.1047C79.6138 76.3091 74.814 78.8517 72.9473 80.5914C70.0141 83.2678 68.1475 83.8031 60.681 83.8031C52.8146 83.8031 51.4813 83.4016 48.548 80.0561L45.2148 76.4429L47.4814 80.1899C49.748 83.8031 49.6147 83.9369 46.5481 86.2118C44.8148 87.4162 41.0816 88.6206 38.2817 88.7544C21.7488 89.4235 21.4821 109.229 38.015 109.229C40.2816 109.229 41.8816 110.433 43.2149 112.976C45.7481 118.061 53.6146 123.28 63.3476 126.626C67.7475 128.098 72.1474 130.373 73.0807 131.577C79.0805 139.74 67.2142 151.115 49.4813 154.059C42.9482 155.129 40.5483 153.256 42.9482 148.84C43.7482 147.368 44.0148 142.818 43.6148 138.402C43.0815 131.711 43.3482 130.105 45.6148 127.964C47.0814 126.626 47.8814 124.886 47.3481 124.083C44.8148 119.935 37.3484 125.689 37.3484 131.845C37.3484 133.986 36.4151 136.528 35.2151 137.465C33.3485 138.937 32.8152 138.803 31.2152 136.662C27.6153 131.711 30.0152 126.224 36.6817 124.484C40.6816 123.548 41.7482 120.604 39.0816 118.329C36.0151 115.786 25.2154 122.076 23.3488 127.696C22.1488 131.042 21.4821 131.577 19.6155 130.506C17.0823 129.034 16.6823 123.815 18.8156 119.801C20.2822 116.99 19.3489 111.905 17.3489 111.905C14.8157 111.905 11.3491 119.265 11.4824 124.217C11.6158 126.893 12.6824 130.774 13.8824 132.647C16.6823 136.93 14.6823 136.93 10.6825 132.647C7.34922 129.168 5.34927 129.302 5.34927 133.183C5.34927 135.859 10.6825 141.346 13.2157 141.346C14.149 141.346 19.0822 145.896 24.4154 151.516C29.6152 157.137 36.5484 163.159 39.7483 165.032C47.3481 169.582 60.281 173.463 67.4808 173.463C76.8139 173.463 82.1471 176.407 85.6136 183.365C87.2136 186.711 88.1469 189.923 87.6136 190.324C85.8803 192.198 73.3473 192.465 64.4143 190.993C42.8149 187.112 23.6154 172.66 13.8824 152.721C11.0824 146.832 7.34922 140.008 5.61593 137.465C2.94934 133.317 2.81601 132.647 4.68263 129.837C5.88259 127.964 6.68257 123.682 6.68257 118.864C6.68257 85.2751 33.7485 55.8346 68.9475 51.4185C78.6805 50.2142 81.3471 49.4112 81.7471 47.5378C82.1471 46.1996 82.0137 44.8613 81.6138 44.4599C80.4138 43.1217 69.0808 43.7908 60.281 45.6643ZM83.347 103.073C90.5468 106.419 100.68 116.455 99.6132 119.265C99.2133 120.202 100.547 123.012 102.546 125.421C104.68 127.964 107.346 132.112 108.546 134.655C110.68 139.205 110.68 139.205 108.413 136.127C103.346 129.436 93.8801 119.533 90.0135 116.857L86.0136 114.18L90.1469 118.73C94.8134 123.815 97.3466 128.231 97.3466 130.908C97.2133 131.845 96.1467 130.506 94.8134 127.964C93.3468 125.421 90.6802 121.808 88.5469 119.935C84.6803 116.455 85.0803 117.392 90.8135 125.956C94.1467 130.908 100.013 145.896 100.013 149.375C100.013 150.178 99.4799 150.446 98.6799 150.044C98.0133 149.643 97.3466 147.903 97.3466 146.297C97.3466 138.937 85.347 119.801 76.2806 112.708L72.6807 109.898L76.5472 114.582C82.4137 121.674 85.347 129.168 85.2137 136.662L85.0803 143.353L84.0137 136.394C82.0137 122.879 72.1474 109.229 64.2809 109.229C62.281 109.229 61.3477 108.56 61.7477 107.489C62.0143 106.686 61.7477 104.545 61.2143 102.806C60.1477 99.9953 60.281 99.8615 68.4141 99.8615C74.2806 99.8615 78.6805 100.798 83.347 103.073Z" fill="black"/>
<path d="M67.2141 102.27C67.6141 103.073 70.2808 104.411 73.0808 105.214C79.0808 107.222 88.6808 112.441 93.8808 116.857C96.0141 118.596 98.0141 119.667 98.4141 119.265C99.7474 117.927 88.9474 107.891 83.3474 105.348C76.9474 102.27 65.8808 100.263 67.2141 102.27Z" fill="black"/>
<path d="M81.0805 66.9416L79.0806 74.4356L82.5471 73.6327C84.4137 73.2312 87.747 72.2945 89.7469 71.4915C92.1469 70.5548 93.8801 70.421 94.4135 71.2239C95.8801 73.2312 102.413 75.7738 106.013 75.7738C107.88 75.7738 109.346 76.3091 109.346 77.112C109.346 77.7811 108.546 78.4502 107.746 78.4502C106.813 78.4502 108.013 79.7884 110.413 81.2604C113.746 83.4015 114.413 84.4721 113.346 85.9441C112.28 87.1485 112.28 88.4867 113.346 90.494C114.946 93.4381 114.946 93.4381 119.613 89.022C123.346 85.275 124.013 83.803 123.479 80.5913C121.346 69.8857 108.546 61.455 92.2802 60.1168L83.2138 59.3139L81.0805 66.9416Z" fill="black"/>
<path d="M45.2149 74.5694C43.6149 75.5062 43.6149 75.7738 45.2149 75.7738C46.2816 75.7738 48.8149 77.3797 50.8149 79.2531C53.3482 81.6619 54.4149 82.1972 54.1482 80.7252C53.7482 77.3797 47.4816 73.0974 45.2149 74.5694Z" fill="black"/>
<path d="M135.479 76.8444C133.212 79.387 133.346 79.7885 136.679 85.1413C138.546 88.0853 140.679 91.9661 141.346 93.7058C142.012 95.5793 143.879 97.0513 146.279 97.5866C148.279 97.988 150.146 98.1218 150.279 97.988C150.812 97.4527 141.879 79.387 139.746 76.7106C138.012 74.3018 137.879 74.3018 135.479 76.8444Z" fill="black"/>
</svg>
